<?xml version="1.0" encoding="utf-8"?>
<!-- Generator: Adobe Illustrator 16.0.0, SVG Export Plug-In . SVG Version: 6.00 Build 0)  -->
<!DOCTYPE svg PUBLIC "-//W3C//DTD SVG 1.1//EN" "http://www.w3.org/Graphics/SVG/1.1/DTD/svg11.dtd">
<svg version="1.1" id="Layer_1" xmlns="http://www.w3.org/2000/svg" xmlns:xlink="http://www.w3.org/1999/xlink" x="0px" y="0px"
	 width="272.171px" height="98.763px" viewBox="0 0 272.171 98.763" enable-background="new 0 0 272.171 98.763"
	 xml:space="preserve">
<g>
	<path stroke="#A4A0A7" stroke-width="3" stroke-miterlimit="10" d="M270.671,63.322c0,18.746-16.224,33.941-36.234,33.941H37.734
		C17.723,97.263,1.5,82.068,1.5,63.322v-27.88C1.5,16.695,17.723,1.5,37.734,1.5h196.702c20.011,0,36.234,15.195,36.234,33.941
		V63.322z"/>
	<g>
		<path fill="none" stroke="#FFF8CF" stroke-miterlimit="10" d="M22.188,14.169c-0.261,0-0.496-0.104-0.705-0.313
			c-0.209-0.208-0.313-0.443-0.313-0.705c0-0.287,0.104-0.528,0.313-0.724c0.208-0.196,0.443-0.293,0.705-0.293
			c0.287,0,0.528,0.098,0.724,0.293s0.293,0.438,0.293,0.724c0,0.261-0.098,0.496-0.293,0.705
			C22.716,14.065,22.474,14.169,22.188,14.169z M21.796,40.007V19.768h0.783v20.239H21.796z"/>
		<path fill="none" stroke="#FFF8CF" stroke-miterlimit="10" d="M31.975,14.169c-0.261,0-0.496-0.104-0.705-0.313
			c-0.209-0.208-0.313-0.443-0.313-0.705c0-0.287,0.104-0.528,0.313-0.724c0.208-0.196,0.443-0.293,0.705-0.293
			c0.287,0,0.528,0.098,0.724,0.293s0.293,0.438,0.293,0.724c0,0.261-0.098,0.496-0.293,0.705
			C32.503,14.065,32.261,14.169,31.975,14.169z M31.583,40.007V19.768h0.783v20.239H31.583z"/>
		<path fill="none" stroke="#FFF8CF" stroke-miterlimit="10" d="M37.768,20.511v-0.744h11.549v0.744H37.768z M46.576,40.125
			c-1.592,0-2.806-0.457-3.641-1.371c-0.835-0.913-1.253-2.114-1.253-3.602V15.344h0.783v19.613c0,1.436,0.353,2.532,1.057,3.289
			c0.705,0.757,1.735,1.135,3.093,1.135c1.356,0,2.479-0.417,3.367-1.252l0.548,0.548c-0.47,0.496-1.063,0.861-1.781,1.096
			C48.031,40.007,47.307,40.125,46.576,40.125z"/>
		<path fill="none" stroke="#FFF8CF" stroke-miterlimit="10" d="M63.332,39.341c-1.879,0-3.569-0.424-5.07-1.272
			c-1.501-0.848-2.688-2.016-3.563-3.503c-0.875-1.488-1.312-3.184-1.312-5.089c0-1.931,0.437-3.634,1.312-5.109
			c0.874-1.474,2.062-2.629,3.563-3.464c1.5-0.835,3.19-1.253,5.07-1.253c1.905,0,3.595,0.418,5.069,1.253
			c1.475,0.835,2.636,1.99,3.484,3.464c0.848,1.475,1.272,3.178,1.272,5.109c0,1.905-0.425,3.602-1.272,5.089
			c-0.849,1.487-2.01,2.656-3.484,3.503C66.926,38.917,65.236,39.341,63.332,39.341z M63.332,38.598
			c1.774,0,3.347-0.385,4.717-1.155c1.37-0.77,2.453-1.846,3.249-3.23c0.796-1.383,1.194-2.962,1.194-4.737
			c0-1.801-0.398-3.379-1.194-4.737c-0.796-1.357-1.879-2.42-3.249-3.19c-1.37-0.77-2.943-1.155-4.717-1.155
			c-1.749,0-3.315,0.386-4.698,1.155c-1.384,0.77-2.473,1.833-3.269,3.19c-0.796,1.357-1.194,2.936-1.194,4.737
			c0,1.775,0.397,3.354,1.194,4.737c0.796,1.384,1.885,2.46,3.269,3.23C60.017,38.213,61.583,38.598,63.332,38.598z M63.918,47.719
			c-1.827,0-3.537-0.3-5.128-0.9c-1.592-0.601-2.872-1.422-3.837-2.466l0.548-0.548c1.043,1.018,2.283,1.801,3.719,2.349
			c1.435,0.548,3.001,0.822,4.698,0.822c2.923,0,5.083-0.692,6.479-2.075c1.396-1.384,2.095-3.576,2.095-6.577v-6.499l0.391-2.349
			l-0.391-2.349v-7.359h0.783v18.438c0,3.262-0.777,5.663-2.329,7.203C69.393,46.949,67.05,47.719,63.918,47.719z"/>
		<path fill="none" stroke="#FFF8CF" stroke-miterlimit="10" d="M89.717,40.125c-1.879,0-3.556-0.437-5.03-1.312
			c-1.475-0.874-2.643-2.088-3.504-3.641c-0.861-1.552-1.292-3.321-1.292-5.304c0-2.009,0.431-3.778,1.292-5.305
			s2.029-2.727,3.504-3.602c1.474-0.874,3.151-1.312,5.03-1.312c1.879,0,3.563,0.438,5.05,1.312
			c1.487,0.875,2.655,2.075,3.504,3.602c0.848,1.527,1.272,3.295,1.272,5.305c0,1.983-0.424,3.752-1.272,5.304
			c-0.849,1.553-2.017,2.767-3.504,3.641C93.279,39.688,91.596,40.125,89.717,40.125z M89.717,39.38
			c1.723,0,3.269-0.404,4.639-1.213c1.37-0.809,2.447-1.931,3.229-3.367c0.783-1.435,1.175-3.079,1.175-4.933
			c0-1.879-0.392-3.53-1.175-4.952c-0.783-1.422-1.859-2.531-3.229-3.328c-1.37-0.796-2.917-1.194-4.639-1.194
			c-1.722,0-3.263,0.398-4.619,1.194c-1.357,0.796-2.434,1.905-3.23,3.328c-0.796,1.422-1.194,3.073-1.194,4.952
			c0,1.854,0.397,3.498,1.194,4.933c0.796,1.436,1.873,2.558,3.23,3.367C86.454,38.976,87.995,39.38,89.717,39.38z"/>
		<path fill="none" stroke="#FFF8CF" stroke-miterlimit="10" d="M111.365,40.125c-1.514,0-2.806-0.235-3.875-0.705
			c-1.07-0.47-1.886-1.135-2.447-1.997c-0.562-0.861-0.842-1.853-0.842-2.975c0-0.965,0.229-1.859,0.685-2.682
			c0.457-0.822,1.207-1.487,2.251-1.997c1.044-0.509,2.466-0.763,4.268-0.763h8.104v0.744h-8.143c-2.297,0-3.934,0.438-4.913,1.312
			c-0.979,0.875-1.468,1.99-1.468,3.347c0,1.514,0.561,2.721,1.683,3.621s2.688,1.351,4.698,1.351c1.958,0,3.569-0.45,4.835-1.351
			c1.266-0.9,2.225-2.173,2.877-3.817l0.392,0.509c-0.548,1.619-1.507,2.923-2.877,3.915
			C115.221,39.629,113.479,40.125,111.365,40.125z M119.077,40.007v-4.815v-0.666v-7.751c0-2.114-0.548-3.706-1.645-4.776
			c-1.096-1.07-2.688-1.605-4.776-1.605c-1.514,0-2.897,0.261-4.149,0.783c-1.253,0.522-2.323,1.201-3.21,2.036l-0.548-0.548
			c0.965-0.914,2.14-1.645,3.523-2.192c1.383-0.548,2.831-0.822,4.345-0.822c2.349,0,4.143,0.601,5.383,1.801
			c1.239,1.201,1.859,2.962,1.859,5.285v13.271H119.077z"/>
	</g>
	<g>
		<path fill="none" stroke="#EFCABF" stroke-width="3" stroke-miterlimit="10" d="M46.968,59.65c1.618,0,3.015,0.32,4.189,0.959
			c1.174,0.641,2.081,1.586,2.721,2.839c0.639,1.253,0.959,2.793,0.959,4.619v11.94h-0.783v-11.94c0-2.505-0.62-4.41-1.859-5.716
			c-1.24-1.305-2.969-1.957-5.187-1.957c-1.723,0-3.204,0.359-4.443,1.076c-1.24,0.719-2.192,1.723-2.858,3.015
			s-0.998,2.799-0.998,4.521v11.001h-0.783v-11.94c0-2.505-0.62-4.41-1.859-5.716c-1.24-1.305-2.969-1.957-5.187-1.957
			c-1.723,0-3.204,0.359-4.443,1.076c-1.24,0.719-2.192,1.723-2.858,3.015s-0.998,2.799-0.998,4.521v11.001h-0.783V59.768h0.783
			v5.715L22.5,65.366c0.574-1.748,1.579-3.138,3.015-4.169c1.435-1.031,3.21-1.547,5.324-1.547c2.088,0,3.811,0.528,5.168,1.586
			c1.356,1.057,2.205,2.63,2.544,4.717l-0.118-0.039c0.496-1.853,1.481-3.359,2.956-4.521C42.864,60.231,44.723,59.65,46.968,59.65z
			"/>
		<path fill="none" stroke="#EFCABF" stroke-width="3" stroke-miterlimit="10" d="M68.812,80.125c-1.514,0-2.806-0.235-3.875-0.705
			c-1.07-0.47-1.886-1.135-2.447-1.996c-0.562-0.861-0.842-1.853-0.842-2.976c0-0.965,0.229-1.859,0.685-2.682
			c0.457-0.821,1.207-1.487,2.251-1.996s2.466-0.764,4.268-0.764h8.104v0.744h-8.143c-2.297,0-3.934,0.438-4.913,1.312
			c-0.979,0.874-1.468,1.99-1.468,3.347c0,1.515,0.561,2.721,1.683,3.621s2.688,1.351,4.698,1.351c1.958,0,3.569-0.45,4.835-1.351
			c1.266-0.9,2.225-2.173,2.877-3.816l0.392,0.509c-0.548,1.618-1.507,2.923-2.877,3.915S70.926,80.125,68.812,80.125z
			 M76.524,80.007v-4.815v-0.665v-7.752c0-2.114-0.548-3.705-1.645-4.775c-1.096-1.07-2.688-1.605-4.776-1.605
			c-1.514,0-2.897,0.261-4.149,0.783c-1.253,0.522-2.323,1.2-3.21,2.035l-0.548-0.548c0.965-0.913,2.14-1.645,3.523-2.192
			c1.383-0.548,2.831-0.822,4.345-0.822c2.349,0,4.143,0.601,5.383,1.801c1.239,1.201,1.859,2.963,1.859,5.285v13.271H76.524z"/>
		<path fill="none" stroke="#EFCABF" stroke-width="3" stroke-miterlimit="10" d="M86.076,80.007V59.768h0.783v5.598l-0.079-0.117
			c0.548-1.774,1.507-3.151,2.877-4.13c1.37-0.979,3.086-1.469,5.148-1.469v0.783c-0.026,0-0.059,0-0.098,0c-0.04,0-0.085,0-0.137,0
			c-2.427,0-4.32,0.777-5.676,2.329c-1.357,1.554-2.036,3.674-2.036,6.361v10.884H86.076z"/>
		<path fill="none" stroke="#EFCABF" stroke-width="3" stroke-miterlimit="10" d="M100.678,80.007V50.959h0.783v29.048H100.678z
			 M101.187,73.978v-0.939l14.563-13.271h1.135l-8.808,8.064l-0.626,0.47L101.187,73.978z M116.768,80.007l-9.474-11.901l0.626-0.47
			l9.865,12.371H116.768z"/>
		<path fill="none" stroke="#EFCABF" stroke-width="3" stroke-miterlimit="10" d="M129.922,80.125c-1.958,0-3.693-0.437-5.207-1.312
			c-1.514-0.874-2.708-2.088-3.582-3.641c-0.875-1.553-1.312-3.321-1.312-5.305c0-2.009,0.404-3.777,1.214-5.305
			c0.809-1.526,1.924-2.727,3.347-3.602c1.422-0.874,3.021-1.312,4.795-1.312c1.774,0,3.373,0.425,4.796,1.272
			c1.422,0.849,2.544,2.029,3.367,3.543c0.822,1.514,1.233,3.249,1.233,5.207c0,0.026,0,0.053,0,0.078c0,0.026,0,0.065,0,0.117
			h-18.321v-0.744h17.891l-0.313,0.588c0-1.774-0.379-3.367-1.135-4.776c-0.757-1.409-1.781-2.519-3.073-3.327
			s-2.773-1.214-4.443-1.214c-1.644,0-3.119,0.405-4.424,1.214s-2.329,1.918-3.073,3.327c-0.744,1.409-1.116,3.002-1.116,4.776
			v0.156c0,1.854,0.404,3.498,1.213,4.933c0.809,1.436,1.918,2.559,3.328,3.367s3.014,1.213,4.815,1.213
			c1.356,0,2.642-0.26,3.856-0.782c1.213-0.522,2.225-1.305,3.034-2.35l0.548,0.549c-0.888,1.096-1.984,1.925-3.289,2.485
			C132.766,79.844,131.383,80.125,129.922,80.125z"/>
		<path fill="none" stroke="#EFCABF" stroke-width="3" stroke-miterlimit="10" d="M141.587,60.511v-0.743h11.549v0.743H141.587z
			 M150.396,80.125c-1.593,0-2.806-0.456-3.641-1.37c-0.836-0.913-1.253-2.114-1.253-3.602V55.344h0.783v19.612
			c0,1.437,0.353,2.532,1.057,3.289c0.705,0.757,1.735,1.135,3.093,1.135c1.356,0,2.479-0.417,3.367-1.252l0.548,0.548
			c-0.47,0.496-1.063,0.861-1.781,1.096C151.85,80.007,151.126,80.125,150.396,80.125z"/>
		<path fill="none" stroke="#EFCABF" stroke-width="3" stroke-miterlimit="10" d="M160.378,87.602V59.768h0.783v7.438l-0.392,2.74
			l0.392,2.74v14.916H160.378z M170.204,80.125c-1.854,0-3.511-0.437-4.972-1.312c-1.462-0.874-2.617-2.081-3.465-3.621
			c-0.849-1.54-1.272-3.301-1.272-5.285c0-2.009,0.424-3.783,1.272-5.324c0.848-1.539,2.003-2.746,3.465-3.621
			c1.461-0.874,3.118-1.312,4.972-1.312c1.853,0,3.523,0.438,5.011,1.312c1.487,0.875,2.662,2.082,3.523,3.621
			c0.861,1.541,1.292,3.315,1.292,5.324c0,1.984-0.431,3.745-1.292,5.285s-2.036,2.747-3.523,3.621
			C173.728,79.688,172.057,80.125,170.204,80.125z M170.204,79.38c1.723,0,3.269-0.397,4.639-1.193s2.447-1.912,3.229-3.348
			c0.783-1.435,1.175-3.079,1.175-4.933c0-1.879-0.392-3.529-1.175-4.952c-0.782-1.422-1.859-2.538-3.229-3.347
			s-2.916-1.214-4.639-1.214s-3.27,0.405-4.64,1.214s-2.446,1.925-3.229,3.347c-0.783,1.423-1.174,3.073-1.174,4.952
			c0,1.854,0.391,3.498,1.174,4.933c0.783,1.436,1.859,2.552,3.229,3.348S168.481,79.38,170.204,79.38z"/>
		<path fill="none" stroke="#EFCABF" stroke-width="3" stroke-miterlimit="10" d="M186.646,80.007V50.959h0.783v29.048H186.646z"/>
		<path fill="none" stroke="#EFCABF" stroke-width="3" stroke-miterlimit="10" d="M201.64,80.125c-1.515,0-2.806-0.235-3.876-0.705
			s-1.886-1.135-2.446-1.996c-0.562-0.861-0.842-1.853-0.842-2.976c0-0.965,0.228-1.859,0.685-2.682
			c0.456-0.821,1.207-1.487,2.251-1.996s2.467-0.764,4.268-0.764h8.104v0.744h-8.143c-2.297,0-3.935,0.438-4.913,1.312
			s-1.469,1.99-1.469,3.347c0,1.515,0.562,2.721,1.684,3.621s2.688,1.351,4.698,1.351c1.957,0,3.568-0.45,4.834-1.351
			s2.226-2.173,2.878-3.816l0.392,0.509c-0.548,1.618-1.508,2.923-2.878,3.915S203.753,80.125,201.64,80.125z M209.352,80.007
			v-4.815v-0.665v-7.752c0-2.114-0.548-3.705-1.645-4.775c-1.096-1.07-2.688-1.605-4.775-1.605c-1.515,0-2.897,0.261-4.15,0.783
			s-2.323,1.2-3.21,2.035l-0.548-0.548c0.965-0.913,2.14-1.645,3.523-2.192c1.383-0.548,2.831-0.822,4.345-0.822
			c2.35,0,4.144,0.601,5.383,1.801c1.24,1.201,1.86,2.963,1.86,5.285v13.271H209.352z"/>
		<path fill="none" stroke="#EFCABF" stroke-width="3" stroke-miterlimit="10" d="M226.459,80.125c-1.905,0-3.608-0.437-5.108-1.312
			c-1.502-0.874-2.682-2.081-3.543-3.621s-1.292-3.314-1.292-5.324c0-2.009,0.431-3.784,1.292-5.324
			c0.861-1.539,2.041-2.74,3.543-3.602c1.5-0.861,3.203-1.292,5.108-1.292c1.461,0,2.824,0.274,4.091,0.822
			c1.266,0.548,2.329,1.37,3.19,2.467l-0.548,0.587c-0.783-1.07-1.762-1.859-2.937-2.368c-1.174-0.509-2.44-0.764-3.797-0.764
			c-1.749,0-3.314,0.398-4.698,1.194c-1.383,0.796-2.473,1.905-3.269,3.327c-0.796,1.423-1.194,3.073-1.194,4.952
			s0.398,3.53,1.194,4.952c0.796,1.423,1.886,2.539,3.269,3.348c1.384,0.809,2.949,1.213,4.698,1.213
			c1.356,0,2.623-0.26,3.797-0.782c1.175-0.522,2.153-1.305,2.937-2.35l0.548,0.588c-0.861,1.096-1.925,1.918-3.19,2.466
			C229.283,79.85,227.92,80.125,226.459,80.125z"/>
		<path fill="none" stroke="#EFCABF" stroke-width="3" stroke-miterlimit="10" d="M247.56,80.125c-1.957,0-3.693-0.437-5.206-1.312
			c-1.515-0.874-2.708-2.088-3.582-3.641c-0.875-1.553-1.312-3.321-1.312-5.305c0-2.009,0.404-3.777,1.213-5.305
			c0.809-1.526,1.925-2.727,3.348-3.602c1.422-0.874,3.021-1.312,4.796-1.312c1.774,0,3.372,0.425,4.795,1.272
			c1.423,0.849,2.545,2.029,3.367,3.543s1.233,3.249,1.233,5.207c0,0.026,0,0.053,0,0.078c0,0.026,0,0.065,0,0.117h-18.321v-0.744
			h17.891l-0.313,0.588c0-1.774-0.379-3.367-1.136-4.776s-1.781-2.519-3.072-3.327c-1.292-0.809-2.773-1.214-4.443-1.214
			c-1.645,0-3.119,0.405-4.424,1.214c-1.306,0.809-2.329,1.918-3.073,3.327s-1.116,3.002-1.116,4.776v0.156
			c0,1.854,0.404,3.498,1.214,4.933c0.809,1.436,1.918,2.559,3.328,3.367c1.409,0.809,3.014,1.213,4.814,1.213
			c1.357,0,2.643-0.26,3.856-0.782s2.225-1.305,3.034-2.35l0.548,0.549c-0.888,1.096-1.983,1.925-3.288,2.485
			C250.404,79.844,249.021,80.125,247.56,80.125z"/>
	</g>
</g>
</svg>
